<svg xmlns="http://www.w3.org/2000/svg" width="46" height="20" fill="none"><clipPath id="a"><path d="M0 0h46v20H0z"/></clipPath><g clip-path="url(#a)"><path fill="#fff" fill-opacity=".8" d="M9.42 15.38c-.22.13-.48.2-.76.2H6.8c-.78 0-1.42-.56-1.52-1.3l-.43.63c-.28.42-.76.68-1.27.68H1.57c-.57 0-1.1-.31-1.36-.8a1.5 1.5 0 0 1 .08-1.57l1.65-2.42A5.05 5.05 0 0 1 .28 6.94c0-1.4.5-2.7 1.58-3.62A6.16 6.16 0 0 1 5.96 2h2.7c.84 0 1.53.68 1.53 1.52v1.4h1.83c.5 0 .94.23 1.22.6.28-.37.72-.6 1.22-.6h1.82c.41 0 .78.15 1.06.4.27-.25.64-.4 1.05-.4h5.32c.65 0 1.2.39 1.43.95a4.61 4.61 0 0 1 3.12-1.1c1 0 2.05.23 2.9.92.26-.46.76-.78 1.33-.78h1.83c.54 0 1.01.28 1.29.7l.05-.07c.28-.4.75-.63 1.24-.63h1.84c.45 0 .86.2 1.15.52a5.2 5.2 0 0 1 2.64-.67c1.03 0 2 .17 2.72.56.48.27.78.78.78 1.33v1.53c0 .55-.3 1.06-.79 1.33-.49.26-1.08.25-1.56-.04a2.12 2.12 0 0 0-.95-.24.5.5 0 0 0-.14.01c-.04.06-.18.3-.18.97 0 .67.12.96.18 1.05a1.44 1.44 0 0 0 1.03-.23 1.53 1.53 0 1 1 2.42 1.24v1.48c0 .49-.25.94-.64 1.23-.81.58-1.78.76-2.8.76a5.8 5.8 0 0 1-2.5-.52c-.28.23-.63.37-1 .37h-2.08c-.5 0-.96-.24-1.25-.64l-.1-.15c-.27.47-.77.79-1.35.79h-1.83a1.5 1.5 0 0 1-1.06-.43c-.76.36-1.7.58-2.8.58-.91 0-1.8-.16-2.57-.54v.62c0 .83-.69 1.51-1.53 1.51h-1.7c-.84 0-1.53-.68-1.53-1.51v-.23h-1.02v.23c0 .83-.7 1.51-1.54 1.51h-1.69c-.85 0-1.53-.68-1.53-1.51v-.23h-1.06c-.5 0-.94-.24-1.22-.6-.28.36-.72.6-1.22.6h-1.83c-.28 0-.54-.08-.77-.2z"/><g fill="#000"><path fill-rule="evenodd" d="M31.16 12.15v1.49c-.54.37-1.4.67-2.56.67-2.33 0-3.65-1.3-3.65-3.98 0-2.33 1.06-4.04 3.28-4.04 1.82 0 3 1.02 3 3.7v.96h-4.4c.08 1.3.59 1.92 1.92 1.92.89 0 1.84-.34 2.4-.72zm-1.78-2.7c0-.96-.28-1.72-1.18-1.72-.88 0-1.32.65-1.37 1.88h2.55z" clip-rule="evenodd"/><path d="M44.45 13.84a3.1 3.1 0 0 1-1.88.47c-2.44 0-3.62-1.42-3.62-4 0-2.35 1.2-4.02 3.54-4.02.9 0 1.58.16 1.96.37v1.55a3.6 3.6 0 0 0-1.76-.48c-1.2 0-1.86.86-1.86 2.53 0 1.6.54 2.61 1.84 2.61.77 0 1.32-.2 1.78-.52zM14.44 9.5V6.45h1.83v7.7h-1.83v-3.21h-2.43v3.22h-1.83V6.45h1.83V9.5z"/><path fill-rule="evenodd" d="M23.69 12.72h.81v3.2h-1.68v-1.76h-4.1v1.76h-1.68v-3.2h.56c.65-1.29.77-3.73.77-5.61v-.66h5.32zm-4.4 0h2.58V7.89h-1.94v.23c0 1.33-.13 3.43-.64 4.6z" clip-rule="evenodd"/><path d="M39.05 14.16h-2.07l-2.7-3.79v3.79h-1.82V6.45h1.83V10l2.57-3.55h1.84L36.13 10z"/></g><path fill="red" d="M6.8 14.16h1.85V3.5h-2.7C3.24 3.5 1.8 4.9 1.8 6.95c0 1.64.78 2.6 2.18 3.6l-2.43 3.6h2.01l2.7-4.02-.93-.63c-1.14-.77-1.7-1.37-1.7-2.65 0-1.14.8-1.9 2.32-1.9h.83z"/></g></svg>